<svg width="17" height="17" viewBox="0 0 17 17" fill="none" xmlns="http://www.w3.org/2000/svg">
<path fill-rule="evenodd" clip-rule="evenodd" d="M7.5179 1.44118C4.16182 1.44118 1.44118 4.16182 1.44118 7.5179C1.44118 10.874 4.16182 13.5946 7.5179 13.5946C9.19327 13.5946 10.7103 12.9166 11.8095 11.8201C11.8113 11.8183 11.813 11.8165 11.8148 11.8148C11.8165 11.813 11.8183 11.8113 11.8201 11.8095C12.9166 10.7103 13.5946 9.19327 13.5946 7.5179C13.5946 4.16182 10.874 1.44118 7.5179 1.44118ZM12.802 12.1365C13.8816 10.9023 14.5358 9.28648 14.5358 7.5179C14.5358 3.64202 11.3938 0.5 7.5179 0.5C3.64202 0.5 0.5 3.64202 0.5 7.5179C0.5 11.3938 3.64202 14.5358 7.5179 14.5358C9.28648 14.5358 10.9023 13.8816 12.1365 12.802L15.6967 16.3622C15.8804 16.5459 16.1784 16.5459 16.3622 16.3622C16.5459 16.1784 16.5459 15.8804 16.3622 15.6967L12.802 12.1365Z" fill="#000743"/>
</svg>
