<svg width="168" height="35" viewBox="0 0 168 35" fill="none" xmlns="http://www.w3.org/2000/svg">
<g clip-path="url(#clip0_3727_16822)">
<path fill-rule="evenodd" clip-rule="evenodd" d="M36.6323 26.8224C33.8454 26.8224 31.0321 25.8495 28.8235 23.8776L31.2162 21.0116C32.8724 22.3788 34.6078 23.2465 36.7112 23.2465C38.3676 23.2465 39.3667 22.5892 39.3667 21.5112V21.4587C39.3667 20.4332 38.7356 19.9073 35.6595 19.1187C31.9523 18.172 29.5596 17.1467 29.5596 13.492V13.4395C29.5596 10.1003 32.2415 7.8916 36.0014 7.8916C38.6831 7.8916 40.9707 8.73308 42.8375 10.2318L40.734 13.2816C39.1039 12.1509 37.5 11.4675 35.9487 11.4675C34.3975 11.4675 33.5823 12.1774 33.5823 13.0714V13.1239C33.5823 14.3333 34.3711 14.7278 37.5526 15.543C41.286 16.5156 43.3895 17.8565 43.3895 21.0641V21.1168C43.3895 24.7714 40.6024 26.8224 36.6323 26.8224Z" fill="white"/>
<path fill-rule="evenodd" clip-rule="evenodd" d="M65.1844 26.6909H61.6612L57.5069 14.6489L53.3527 26.6909H49.8295L43.5456 8.15473H47.8839L51.6963 20.6173L55.8241 8.10205H59.2948L63.4228 20.6173L67.2352 8.15473H71.4682L65.1844 26.6909Z" fill="white"/>
<path fill-rule="evenodd" clip-rule="evenodd" d="M72.9908 26.5594H77.0399V8.15479H72.9908V26.5594Z" fill="white"/>
<path fill-rule="evenodd" clip-rule="evenodd" d="M93.6281 26.5594V14.5438L88.4485 22.4051H88.3433L83.2163 14.6226V26.5594H79.246V8.15479H83.6105L88.4485 15.9373L93.2864 8.15479H97.6509V26.5594H93.6281Z" fill="white"/>
<path fill-rule="evenodd" clip-rule="evenodd" d="M99.8567 26.5594V8.15479H103.906V22.8785H113.082L111.608 26.5594H99.8567Z" fill="white"/>
<path fill-rule="evenodd" clip-rule="evenodd" d="M123.334 12.8875L120.889 18.8557H125.779L123.334 12.8875ZM128.908 26.5597L127.226 22.4316H119.443L117.76 26.5597H113.632L121.52 8.02344H125.254L133.141 26.5597H128.908Z" fill="white"/>
<path fill-rule="evenodd" clip-rule="evenodd" d="M147.969 26.5594L139.056 14.8591V26.5594H135.059V8.15479H138.793L147.417 19.4867V8.15479H151.413V26.5594H147.969Z" fill="white"/>
<path fill-rule="evenodd" clip-rule="evenodd" d="M153.803 26.5594V8.15479H167.685V11.7568H157.826V15.4902H166.502V19.0925H157.826V22.9574H167.817V26.5594H153.803Z" fill="white"/>
<path fill-rule="evenodd" clip-rule="evenodd" d="M17.4942 10.099C17.0868 9.77167 16.5069 9.77167 16.0995 10.099L11.1692 14.0601C10.6134 14.5064 10.6134 15.3534 11.1692 15.8L16.274 19.9012C16.2963 19.919 16.3282 19.919 16.3505 19.9012L22.9631 14.5884C22.9938 14.5639 22.9938 14.5174 22.9631 14.4929L17.4942 10.099Z" fill="#19CCC0"/>
<path fill-rule="evenodd" clip-rule="evenodd" d="M11.1723 34.8447L22.764 25.5318C22.9304 25.3982 23.0271 25.1963 23.0271 24.9825V14.5381L10.2917 24.77C10.1253 24.9035 10.0284 25.1056 10.0284 25.3192V34.2956C10.0284 34.8867 10.712 35.2146 11.1723 34.8447Z" fill="#00FFF4"/>
<path fill-rule="evenodd" clip-rule="evenodd" d="M23.026 14.5342L16.3118 19.931L14.4716 18.4523L23.026 14.5342Z" fill="#27AFA2"/>
<path fill-rule="evenodd" clip-rule="evenodd" d="M5.53248 24.9024C5.9399 25.2297 6.51981 25.2297 6.92723 24.9024L11.8575 20.9413C12.4133 20.495 12.4133 19.648 11.8575 19.2016L6.75267 15.1004C6.7304 15.0824 6.69846 15.0824 6.67617 15.1004L0.0635378 20.4132C0.0328979 20.4375 0.0328979 20.484 0.0635378 20.5085L5.53248 24.9024Z" fill="#028ACF"/>
<path fill-rule="evenodd" clip-rule="evenodd" d="M11.8548 0.156346L0.263132 9.46918C0.0967477 9.60284 0 9.8049 0 10.0185V20.4628L12.7354 10.2312C12.9018 10.0975 12.9987 9.89544 12.9987 9.68185V0.705689C12.9987 0.114517 12.3152 -0.213603 11.8548 0.156346Z" fill="#02AAFF"/>
<path fill-rule="evenodd" clip-rule="evenodd" d="M0 20.4649L6.71422 15.0684L8.55446 16.5468L0 20.4649Z" fill="#0578A5"/>
</g>
<defs>
<clipPath id="clip0_3727_16822">
<rect width="168" height="35" fill="white"/>
</clipPath>
</defs>
</svg>
